<?xml version="1.0" standalone="no"?>
<!DOCTYPE svg PUBLIC "-//W3C//DTD SVG 20010904//EN"
 "http://www.w3.org/TR/2001/REC-SVG-20010904/DTD/svg10.dtd">
<svg version="1.0" xmlns="http://www.w3.org/2000/svg"
 width="512.000000pt" height="512.000000pt" viewBox="0 0 512.000000 512.000000"
 preserveAspectRatio="xMidYMid meet">
<metadata>
Created by potrace 1.14, written by Peter Selinger 2001-2017
</metadata>
<g transform="translate(0.000000,512.000000) scale(0.100000,-0.100000)"
fill="#000000" stroke="none">
<path d="M2125 5114 c-463 -49 -833 -186 -1181 -439 -136 -99 -346 -303 -453
-439 -612 -782 -652 -1872 -100 -2696 43 -63 105 -148 139 -187 l61 -73 -118
0 c-124 0 -203 -14 -272 -49 -52 -27 -125 -100 -152 -152 -46 -91 -49 -119
-49 -559 0 -465 0 -468 70 -503 33 -16 156 -17 2248 -15 l2214 3 34 38 35 37
-3 458 -3 457 -33 67 c-41 83 -120 158 -200 189 -45 18 -86 23 -201 28 l-143
6 39 45 c212 242 394 597 477 929 54 214 61 278 60 566 0 251 -2 280 -27 406
-90 458 -286 843 -598 1173 -351 371 -812 611 -1329 691 -101 15 -431 28 -515
19z m90 -284 c620 -120 1135 -630 1304 -1293 16 -61 32 -135 36 -163 l6 -51
-51 -7 c-113 -15 -242 -84 -315 -168 -75 -86 -125 -224 -125 -342 0 -177 120
-366 283 -446 37 -18 67 -37 67 -43 0 -22 -112 -232 -168 -314 -227 -331 -575
-574 -962 -673 -175 -45 -255 -50 -816 -50 l-531 0 -100 103 c-384 399 -583
887 -583 1432 0 549 214 1061 605 1450 299 298 707 505 1122 569 117 19 107
19 228 -4z m1075 -227 c695 -386 1116 -1161 1052 -1937 -42 -509 -246 -951
-600 -1303 l-83 -83 -406 0 c-224 0 -404 2 -402 4 2 2 36 25 74 51 334 226
581 528 740 904 31 74 31 74 91 95 155 57 270 181 318 345 18 62 21 184 5 251
-26 112 -113 239 -207 300 l-48 31 -17 122 c-64 475 -283 896 -640 1232 l-102
97 80 -37 c44 -20 109 -52 145 -72z"/>
<path d="M1495 4407 c-194 -101 -321 -195 -473 -349 -150 -152 -306 -386 -364
-543 -26 -73 -20 -105 27 -152 28 -28 40 -33 83 -33 69 0 92 22 151 143 80
166 161 278 301 417 140 141 247 218 418 304 123 62 152 91 152 156 0 40 -28
88 -62 106 -51 29 -106 17 -233 -49z"/>
</g>
</svg>
